<svg width="702" height="192" viewBox="0 0 702 192" fill="none" xmlns="http://www.w3.org/2000/svg">
<g clip-path="url(#clip0_128_185)">
<path d="M168.537 95.1432L171.465 94.5968C174.598 94.0504 177.866 93.4356 180.999 92.8209C183.246 92.3428 185.493 91.7281 187.264 91.1817C188.081 90.9085 188.966 90.4304 189.647 89.8157C190.396 89.1327 190.736 88.2448 190.532 87.4252C190.328 86.5373 189.579 85.9225 188.625 85.7176C187.468 85.4444 186.446 85.3761 185.493 85.5127C181.135 86.0592 176.641 86.6739 172.351 87.2886L168.265 87.835C168.265 87.835 167.856 87.835 167.652 87.9033L164.724 74.5163C164.724 74.5163 164.86 74.5163 164.928 74.5163C169.967 73.2869 174.598 70.9646 179.024 68.7107L181.067 67.6862C181.748 67.3447 182.361 66.9349 183.178 66.3202C184.812 65.0225 185.425 63.6565 184.676 62.427C183.791 60.9244 182.429 61.1976 181.407 61.4025C181.271 61.4025 181.135 61.4025 180.999 61.4708C180.863 61.4708 180.658 61.5391 180.522 61.6074V61.8123L180.386 61.6074C180.386 61.6074 180.182 61.6074 180.114 61.6074C176.232 62.427 172.282 63.7931 168.129 65.7055C166.699 66.3885 165.269 66.9349 163.839 67.4813H163.702C163.226 67.6862 162.749 67.8911 162.34 68.096L155.327 55.4603C156.076 54.9139 156.825 54.2992 157.642 53.7528L158.05 53.4113C160.366 51.6355 162.817 49.7914 165.201 47.9472C166.903 46.5812 168.537 45.0786 170.308 43.2345C171.125 42.4149 171.806 41.3221 172.214 40.0926C172.555 39.2047 172.419 38.3168 171.942 37.6338C171.465 37.0191 170.648 36.6776 169.695 36.7459C168.605 36.8825 167.38 37.2923 166.29 37.9753C165.064 38.7266 163.907 39.6145 162.817 40.5024L161.932 41.1855C158.8 43.6443 155.395 46.308 152.058 48.9035C151.718 49.1767 151.377 49.5865 151.173 49.8597L141.707 40.5707C146.066 36.0629 149.47 30.7354 152.535 25.6128C153.216 24.4517 153.692 23.4955 153.897 22.5393C154.169 21.5148 153.897 20.6269 153.284 19.9439C152.671 19.3292 151.786 19.1243 150.832 19.3292C149.675 19.6024 148.517 20.2854 147.836 21.0367C144.636 24.7932 141.707 28.6181 138.371 32.8527C137.69 33.7407 137.009 34.6969 136.396 35.5848C136.26 35.7897 136.124 36.0629 135.919 36.2678L124.207 29.9158L126.045 25.8861C127.884 21.8563 129.859 17.7582 131.697 13.6602C132.174 12.5674 132.583 11.2697 132.855 9.97194C133.127 8.53762 132.583 7.37651 131.425 6.8301C130.199 6.21539 128.905 6.42029 127.952 7.44481C127.067 8.33272 126.182 9.22063 125.637 10.3817C123.866 13.7968 122.028 17.5533 119.917 21.8563C119.236 23.2223 118.691 24.6566 118.078 26.091L117.942 26.4325C117.942 26.4325 117.67 27.0472 117.533 27.3887C112.835 26.4325 108.272 25.4079 103.982 24.52C103.982 23.4272 103.982 22.3344 104.05 21.2416V20.7635C104.119 17.5533 104.187 14.0017 104.187 10.5183C104.187 7.78631 103.846 4.98598 103.574 2.52714C103.369 0.887922 102.484 -0.136592 101.122 -0.273193C101.054 -0.273193 100.918 -0.273193 100.85 -0.273193C99.8285 -0.273193 98.4666 0.136612 97.8537 2.25394C97.5133 3.61996 97.1047 5.05428 96.9685 6.4886C96.6961 9.42553 96.4918 12.3625 96.3556 15.2311L95.7428 24.1785C94.9937 24.1785 94.2447 24.3151 93.5637 24.3151C91.3165 24.4517 89.2056 24.5883 87.0265 24.8615C86.2093 24.9298 86.1413 24.8615 85.937 24.1785C84.4389 18.9877 82.8727 13.8651 81.3745 8.94743C80.4893 6.07879 79.1274 3.96146 77.2207 2.52714C76.3354 1.84413 75.0416 1.09282 73.5435 1.91244C72.3859 2.52714 71.9092 3.68826 72.1135 5.32748C72.1816 6.01049 72.2497 6.6252 72.3859 7.30821C72.6583 9.56214 72.9307 11.8844 73.5435 14.07C74.4288 17.1435 75.5864 20.2854 76.6078 23.0857C76.9483 24.0419 77.2888 24.9981 77.6293 25.9544C77.8336 26.4325 77.7655 26.5691 77.7655 26.5691C77.7655 26.5691 77.6974 26.6374 77.2888 26.7057C76.4035 26.9106 75.3821 27.1838 74.1564 27.6619C72.2497 28.3449 70.2749 29.0962 68.4363 29.7792L66.3935 30.5305L64.1463 27.3887C62.1034 24.52 59.9244 21.5831 57.8134 18.6462L57.6091 18.373C56.4515 16.8703 55.2938 15.2311 53.9319 13.9334C52.9786 13.0455 51.6167 12.2942 50.2547 11.9527C49.2333 11.6795 48.3481 11.9527 47.7352 12.4991C47.1223 13.1138 46.9861 14.0017 47.2585 15.0262C47.8033 17.0069 48.5523 18.7828 49.4376 20.2171C51.6848 23.9053 54.0681 27.5253 56.3834 31.0086L56.6558 31.4184C57.3367 32.4429 58.0177 33.4675 58.6986 34.492L46.6457 43.7809C45.4199 42.8247 44.1942 41.9368 42.9685 40.9805C39.4956 38.3168 35.8865 35.5165 32.2774 32.8527C30.7793 31.7599 28.8046 30.9403 26.7617 30.4622C25.604 30.189 24.5826 30.4622 23.9697 31.2135C23.2888 32.0331 23.2207 33.2625 23.7655 34.4237C24.174 35.3116 24.7869 36.2678 25.604 37.0874C30.7793 42.7564 35.4098 46.9227 40.1085 50.2012C40.2447 50.2695 40.3808 50.4061 40.517 50.5427L32.5498 62.9051C32.5498 62.9051 32.3455 62.8368 32.2093 62.7685C27.715 59.9682 22.6759 58.329 18.3178 56.963C16.1387 56.28 13.9597 55.8701 11.5763 55.4603C10.0101 55.1871 8.71628 55.9384 8.23961 57.3045C7.69484 58.8071 8.03532 60.3097 9.26104 61.3342C10.0101 62.0172 10.9634 62.7685 11.9849 63.2466C16.0706 65.0908 20.565 67.0715 25.8083 69.3254C26.7617 69.7352 27.8512 70.0767 28.6684 70.3499C28.8726 70.3499 29.0769 70.4865 29.2812 70.5548L25.604 85.3078C24.7869 85.3078 24.0378 85.3078 23.2207 85.3078C21.1097 85.3078 18.9307 85.3078 16.7516 85.581C12.7339 85.9908 8.64818 86.5372 4.42624 87.2886C3.33671 87.4935 2.04288 88.2448 1.02145 89.3376C0.204297 90.2255 -0.136182 91.1817 0.136201 92.0696C0.408584 92.9575 1.29383 93.6405 2.51956 93.9137C2.99623 94.0503 3.4729 94.1187 3.88147 94.1187H7.08198C10.2825 94.3236 13.8916 94.4602 17.4325 94.4602C19.2711 94.4602 21.1097 94.4602 22.9483 94.4602C23.5612 94.4602 24.174 94.4602 24.7869 94.4602L26.7617 111.877L15.594 117.204C14.9811 117.478 14.3682 117.751 13.6873 118.092C12.2573 118.707 10.7592 119.39 9.39724 120.21C8.03532 121.098 6.7415 122.327 5.72006 123.761C5.1072 124.649 4.97101 125.605 5.37958 126.425C5.78816 127.245 6.60531 127.791 7.62674 127.859V127.654H7.69484V127.859C9.39724 127.996 10.9634 128.064 12.3935 127.586C15.8663 126.425 19.2711 124.991 22.744 123.556L23.425 123.283C24.4464 122.873 25.4679 122.327 26.4893 121.849C27.1702 121.507 27.9193 121.166 28.6684 120.824C29.3493 120.551 29.5536 120.483 29.6898 120.551C29.8941 120.619 30.0984 121.234 30.1665 121.439L30.3708 121.985C30.6431 122.737 30.9836 123.556 31.3922 124.308C32.7541 126.903 34.0479 129.43 35.4779 132.094L36.976 134.894C36.976 134.894 36.4994 135.167 36.2951 135.372C35.4779 136.055 34.6608 136.67 33.8436 137.353H33.7074C31.5965 139.129 29.3493 140.836 27.3064 142.681C24.7869 144.935 22.5397 147.393 20.4288 149.784C19.8159 150.467 19.4754 151.97 19.9521 152.721C20.4288 153.609 21.9269 153.882 22.6078 153.95C25.0593 154.223 27.4426 153.404 29.826 151.491C32.4817 149.374 35.0694 147.188 37.5889 145.071L39.8361 143.159C40.4489 142.612 41.0618 142.134 41.5385 141.656L41.7428 141.451L54.1362 153.131L52.57 155.521C51.889 156.546 51.2762 157.57 50.5952 158.595V158.731C48.8247 161.327 47.0542 164.059 45.4199 166.859C44.5347 168.43 44.058 170.206 43.6494 171.982C43.309 173.553 43.9218 174.919 45.2837 175.67C46.6457 176.421 48.0757 176.353 49.3695 175.465C49.9824 175.055 50.5952 174.441 51.14 173.758C54.8172 168.976 58.0177 163.922 60.6053 158.731C60.7415 158.39 60.9458 158.048 61.082 157.707L74.565 163.717V163.854C72.1816 169.181 70.5473 174.987 69.6621 181.612V182.022C69.5259 182.705 69.3897 183.456 69.594 184.139C69.7302 184.686 70.1387 185.915 71.024 186.53C71.9773 187.144 73.1349 186.871 74.1564 185.71C74.6331 185.164 75.1778 184.481 75.4502 183.729L76.1993 181.885C77.6293 178.47 79.0593 174.987 80.285 171.435C80.8298 170.001 81.1022 168.498 81.4426 166.996C81.5107 166.586 81.6469 166.108 81.715 165.698C82.6684 165.835 83.6217 165.903 84.507 166.04H85.3241C87.6394 166.381 89.8184 166.654 92.0656 166.859H92.2018C93.6545 166.996 94.3808 167.861 94.3808 169.455C94.3808 170.411 94.3808 171.435 94.3808 172.391C94.3808 175.738 94.3808 179.153 94.3808 182.568C94.3808 184.412 94.6532 187.144 96.2194 189.467C96.8323 190.355 97.5133 190.901 98.3304 190.969H98.5347C98.5347 190.969 98.5347 190.969 98.6028 190.969C99.488 190.969 100.305 190.491 100.986 189.535C102.212 187.964 102.757 186.12 102.689 183.866C102.689 181.476 102.552 179.085 102.484 176.763C102.416 173.553 102.348 170.411 102.212 167.201C102.212 166.882 102.371 166.723 102.689 166.723C104.868 166.518 106.706 166.313 108.409 166.04C109.975 165.766 111.541 165.493 112.903 165.152H113.107C113.516 165.015 113.924 164.947 114.333 164.878C114.333 165.015 114.401 165.083 114.469 165.152C115.014 166.586 115.627 168.02 116.172 169.386C117.602 172.938 119.032 176.694 120.598 180.314C121.211 181.817 122.164 183.32 123.458 184.959C124.003 185.71 125.501 186.188 126.318 185.915C126.999 185.642 127.339 184.891 127.612 184.139C127.68 183.934 127.748 183.729 127.816 183.593C127.952 183.32 127.952 183.046 127.952 182.773C127.952 182.705 127.952 182.637 127.952 182.568C128.224 178.402 126.863 174.782 125.228 170.821C124.343 168.703 123.526 166.586 122.845 164.673V164.469C122.504 163.786 122.3 163.171 122.028 162.556L134.217 156.614C134.217 156.614 134.353 156.887 134.421 156.955C134.83 157.638 135.238 158.39 135.783 159.141L136.055 159.483C138.643 162.829 141.299 166.244 144.091 169.591C145.248 171.025 146.883 172.118 148.108 173.006C148.789 173.484 150.219 173.621 150.968 173.143C151.718 172.665 152.126 171.299 151.922 170.411C151.581 168.703 151.105 167.406 150.424 166.381C148.04 162.898 145.453 159.346 143.342 156.546L140.822 153.062C140.822 153.062 140.414 152.448 140.141 152.174C144.091 149.101 147.7 145.618 151.173 141.656C151.173 141.656 151.445 141.588 151.513 141.656C154.169 142.749 156.961 143.978 159.821 145.208C160.979 145.754 162.136 146.301 163.294 146.847C164.996 147.667 166.835 148.554 168.742 149.374C169.967 149.921 171.397 149.852 172.419 149.784C173.508 149.647 174.325 149.169 174.734 148.35C175.143 147.53 174.938 146.574 174.325 145.618C173.712 144.73 173.1 144.047 172.419 143.637C169.967 142.066 167.516 140.563 164.996 139.266C162.885 138.173 160.706 137.148 158.731 136.26H158.595C157.778 135.782 156.961 135.441 156.144 135.031C159.685 129.635 162.409 123.761 164.52 117.204C165.405 117.341 166.29 117.409 167.175 117.478L169.286 117.751C171.057 117.956 172.827 118.161 174.53 118.365C175.892 118.502 177.253 118.707 178.547 118.912C179.977 119.117 181.544 119.322 182.974 119.527C183.723 119.595 184.608 119.663 185.357 119.39C185.561 119.39 187.059 118.775 187.332 117.751C187.536 116.931 187.127 115.77 186.515 115.155C185.561 114.336 184.472 113.721 183.45 113.516C180.59 112.901 177.662 112.423 174.87 111.945H174.734C173.576 111.74 172.419 111.535 171.261 111.33C169.967 111.126 168.742 110.852 167.448 110.647L166.154 110.443C166.154 110.443 166.154 110.238 166.154 110.101C167.175 104.5 167.584 99.8559 167.448 95.4164C167.448 95.0066 167.448 94.9383 168.129 94.87L168.537 95.1432ZM138.303 154.155C141.503 156.955 148.177 167.132 149.334 170.821C149.13 170.684 148.926 170.547 148.721 170.411C147.564 169.318 146.542 168.43 145.725 167.406C143.206 164.4 140.618 161.258 138.371 158.458L136.124 155.658L138.371 154.155H138.303ZM117.397 165.083C117.397 165.083 117.193 164.605 117.125 164.4L119.781 163.581C119.781 163.581 119.917 163.786 119.917 163.922C121.279 167.406 122.573 170.957 123.934 174.441C124.752 176.694 125.705 179.631 125.501 182.842C125.501 183.046 125.501 183.183 125.501 183.388C125.16 182.978 124.82 182.568 124.547 182.159C123.934 181.134 123.39 180.041 122.913 178.743C121.415 175.124 119.985 171.367 118.555 167.815L117.465 165.083H117.397ZM8.64818 124.854C8.98866 124.444 9.32914 124.034 9.73771 123.625C9.80581 123.488 9.942 123.42 10.0782 123.351C15.9344 120.483 21.7907 117.546 27.7831 114.677L28.8046 117.956C28.396 118.092 28.0555 118.297 27.6469 118.502H27.5107C26.4212 119.048 25.3317 119.527 24.3102 120.005L21.7907 121.029C18.5902 122.395 15.2535 123.761 11.9168 124.991C11.0996 125.264 10.0782 125.332 9.05676 125.332C8.78437 125.332 8.51199 125.332 8.3077 125.332L8.71628 124.922L8.64818 124.854ZM31.3241 65.9787L30.3027 68.3692L27.9874 67.4813C25.8764 66.6617 23.7655 65.7738 21.6545 64.8859C19.2711 63.8614 16.9559 62.7002 14.5044 61.5391C13.5511 61.061 12.3935 60.4463 11.4401 59.695C11.2358 59.5584 11.0996 59.2169 10.9634 58.8754C11.2358 58.7388 11.5763 58.6022 11.7125 58.6022C13.6873 59.012 15.4578 59.4218 17.0921 59.8999C21.7907 61.4025 26.7617 63.0417 31.3241 65.9787ZM60.401 32.3746C60.1286 31.9648 59.8563 31.4867 59.4477 30.9403C56.7238 26.9106 54.0681 22.7442 51.6848 18.7828C51.14 17.8948 50.7314 16.8703 50.3228 15.9141C50.1866 15.6409 50.1185 15.436 49.9824 15.1628C50.3228 15.2994 50.7314 15.3677 50.9357 15.5726C51.8209 16.3239 52.8424 17.2801 53.5914 18.3047C56.2472 21.8563 58.971 25.6128 61.3544 28.8913C62.1034 29.9841 62.9206 31.0769 63.6696 32.1014C62.9887 32.4429 62.4439 32.7161 62.1715 32.921C61.4906 33.2853 60.9004 33.1032 60.401 32.3746ZM80.4893 26.1593C77.6293 20.6269 74.7012 9.15233 75.0416 4.98598C75.1778 4.98598 75.314 5.12258 75.3821 5.19088C75.5864 5.39578 75.7907 5.66899 75.995 5.87389H76.0631C76.744 6.7618 77.4931 7.51311 77.7655 8.40102C79.2636 12.704 80.5574 16.9386 81.9874 21.5148C82.396 22.8808 82.8727 24.3151 83.2812 25.6811L80.4212 26.2276L80.4893 26.1593ZM119.781 28.6181L120.734 26.3642C122.981 21.105 125.024 16.119 128.088 11.4746C128.565 10.7916 129.11 10.1085 129.723 9.63044C129.927 9.49383 129.995 9.49384 129.995 9.42553C129.995 9.42553 129.995 9.56214 129.995 9.76704C129.995 10.5183 129.723 11.2697 129.45 11.8844C127.884 15.2994 126.318 18.7828 124.752 22.1295L124.547 22.6076C123.594 24.7249 122.641 26.774 121.687 28.8913C121.551 29.2328 121.415 29.3011 121.415 29.3011C121.415 29.3011 121.347 29.3011 121.074 29.2328C120.666 29.0279 120.257 28.8913 119.781 28.6864H119.712L119.781 28.6181ZM149.879 22.7442L150.083 22.5393C150.356 22.471 150.696 22.4027 150.968 22.4027C150.968 22.6076 150.968 22.8125 150.968 22.8808L150.015 24.3834C148.04 27.5253 145.997 30.8037 143.818 33.9456C142.865 35.3116 141.776 36.6093 140.55 37.907L140.414 38.1119C140.073 38.5217 139.733 38.9315 139.392 39.3413L137.758 38.1119C138.371 37.2923 138.916 36.4727 139.596 35.5848C141.299 33.1942 142.933 30.9403 144.704 28.6864C145.793 27.2521 147.087 25.8861 148.245 24.6566L148.517 24.3834C148.926 23.9053 149.402 23.4272 149.811 22.9491C149.811 22.9491 149.879 22.8125 149.947 22.7442H149.879ZM164.043 42.8247L164.315 42.6198C165.269 41.8685 166.29 41.1172 167.311 40.4341C167.992 39.956 168.742 39.6145 169.422 39.4096C169.422 39.4096 169.491 39.4096 169.559 39.4096C169.559 39.4096 169.559 39.4779 169.559 39.5462C169.218 40.1609 168.81 40.9123 168.197 41.527C166.699 43.0296 165.269 44.3956 163.702 45.625C161.251 47.5374 158.868 49.3816 156.28 51.294H156.144C155.259 52.0453 154.373 52.7283 153.42 53.4113L152.33 52.1136C152.33 52.1136 152.875 51.6355 153.079 51.3623C153.897 50.5427 154.714 49.7914 155.531 49.1084C157.165 47.8106 158.936 46.5812 160.638 45.2835C161.387 44.7371 162.068 44.259 162.817 43.7126C163.158 43.4394 163.566 43.1662 163.907 42.893L164.043 42.8247ZM167.652 90.567C171.193 89.5425 182.565 88.3131 186.923 88.4497C186.855 88.4497 186.787 88.4497 186.719 88.518L186.446 88.6546C185.425 89.0644 184.199 89.4742 183.042 89.7474C179.228 90.4987 175.347 91.25 171.533 91.933L167.788 92.616L167.652 90.6353V90.567ZM167.175 68.779C168.401 68.2326 169.695 67.6862 171.057 67.2764C173.713 66.3885 176.436 65.5689 179.024 64.8176L179.569 64.681C180.114 64.5444 180.658 64.3395 181.135 64.2029C177.662 66.8666 168.333 71.1012 163.566 72.0575C163.294 71.4428 162.953 70.828 163.021 70.6914C163.09 70.5548 163.839 70.2133 164.656 69.9401C165.473 69.5986 166.222 69.2571 167.039 68.9839V68.779L167.175 68.9156V68.779ZM72.3178 183.388C73.0668 176.49 74.633 170.411 77.0845 164.81C77.2207 164.469 77.2888 164.4 77.3569 164.4C77.425 164.4 77.4931 164.4 77.6293 164.469C78.0378 164.673 78.4464 164.742 78.7869 164.81H78.9231C78.9231 164.81 79.1274 164.878 79.1955 164.878C78.7869 169.386 74.7011 180.246 72.2497 183.525C72.2497 183.456 72.2497 183.32 72.2497 183.251L72.3178 183.388ZM58.6986 156.546L58.0858 157.638C56.5196 160.507 54.8172 163.444 53.0467 166.313C52.0252 167.884 50.8676 169.455 49.7781 170.957L48.8928 172.187C48.0757 173.279 47.5309 173.553 46.8499 173.211C46.3733 172.938 46.3733 172.665 46.7138 171.572C46.7138 171.367 46.7819 171.23 46.8499 171.094C47.0542 170.342 47.3947 169.523 47.8714 168.635C48.8247 166.927 49.6419 165.561 50.459 164.264C51.9571 162.01 53.4552 159.688 54.9534 157.434L56.7238 154.77L56.9962 154.906C57.6091 155.316 58.222 155.658 58.6986 156.068C58.6986 156.204 58.6986 156.409 58.6986 156.546ZM26.6255 33.6041C26.6255 33.6041 26.8298 33.6041 26.8979 33.6724C27.7831 33.9456 28.6684 34.2871 29.3493 34.7652C33.1627 37.5655 37.0441 40.5024 40.7213 43.3711L41.6066 44.0541C42.628 44.8054 43.5813 45.5567 44.6028 46.308L42.3556 48.7669C37.8613 46.2397 28.7365 37.4289 26.6255 33.6041ZM100.918 24.4517C100.918 24.4517 100.714 24.7249 100.646 24.7249C100.033 24.7249 99.2838 24.6566 98.5347 24.52C98.3304 24.52 98.1942 24.52 97.9899 24.4517L98.3985 20.3537C98.8752 15.436 99.4199 9.76704 100.033 4.37127C100.033 4.02976 100.305 3.68826 100.646 3.27845C100.85 3.61996 101.054 4.02976 101.054 4.30297C101.599 10.7233 101.939 17.6216 100.85 24.4517H100.918ZM81.6469 162.693C80.285 162.42 78.9912 162.078 77.6974 161.532C77.3569 161.395 76.9483 161.258 76.6078 161.122C70.2068 159.141 64.1463 156.272 58.4943 152.448C51.6167 147.803 45.8285 142.202 41.2661 135.851C32.4817 123.625 27.9874 109.964 27.9874 95.2115C27.9874 93.5039 28.1917 91.7281 28.3279 90.0889C28.396 89.1327 28.5322 88.1082 28.6003 87.152C29.2131 78.4777 32.0051 69.8718 36.908 61.6074C48.6204 41.8685 66.1892 30.5305 89.2056 27.8668C94.0404 27.3204 99.1476 27.5253 103.982 27.9351C105.48 28.0717 106.979 28.2083 108.477 28.5498C109.158 28.6864 109.771 28.8913 110.451 29.0962C111.405 29.2328 112.426 29.6426 113.38 29.9158C114.401 30.189 115.422 30.5305 116.444 30.8037C118.078 31.2135 119.712 31.8282 121.279 32.4429C124.411 33.6724 127.475 35.1067 130.335 36.8142C136.124 40.0926 141.367 44.3273 145.929 49.1767C147.564 50.8842 149.13 52.7283 150.56 54.6407C159.412 66.1153 164.247 79.2974 164.928 93.7771C165.609 108.052 161.728 121.985 153.76 134.075C145.793 146.164 134.557 155.18 121.143 160.097C113.38 162.966 105.276 164.469 97.0366 164.469C95.2661 164.469 93.4275 164.332 91.657 164.195H91.2484C89.3418 164.059 87.5032 163.854 85.5965 163.444C84.2346 163.171 82.8727 163.103 81.5107 162.829L81.6469 162.693ZM40.1766 139.266L37.0441 141.861C33.9117 144.456 30.7112 147.188 27.4426 149.716C26.0126 150.877 24.5145 151.355 23.0164 151.287C25.1955 148.145 34.4565 139.88 38.7465 137.353L40.1766 139.266ZM100.169 184.208C100.169 185.847 99.8966 187.008 99.1476 187.964C98.9433 188.306 98.739 188.374 98.6709 188.442C98.6709 188.442 98.5347 188.237 98.4666 188.032C97.9218 186.257 97.2409 184.003 97.1728 181.885C97.0366 178.334 97.1047 174.85 97.1728 171.094C97.1728 169.796 97.1728 168.498 97.1728 167.201H99.8966V169.045C99.8966 170.821 100.033 172.596 100.033 174.304C100.033 176.148 100.033 178.06 100.033 179.973V180.792C100.033 181.885 100.033 183.046 100.033 184.139L100.169 184.208ZM155.259 137.626C155.871 137.763 156.416 137.9 156.893 138.173L158.05 138.787C162 140.905 166.494 143.364 170.716 145.754C171.193 146.027 171.67 146.505 172.078 147.052H172.146C172.146 147.052 172.282 147.257 172.351 147.393C172.078 147.393 171.738 147.53 171.602 147.462H171.465C170.24 147.188 168.946 146.915 167.788 146.369C166.631 145.891 165.541 145.344 164.451 144.73L164.247 144.593C163.566 144.252 162.817 143.842 162.068 143.5C160.161 142.612 158.187 141.724 156.28 140.836L153.284 139.47L153.42 139.266C153.829 138.651 154.237 138.104 154.646 137.626C154.646 137.626 154.918 137.49 155.122 137.49L155.259 137.626ZM168.537 113.653C169.559 113.789 170.58 113.994 171.602 114.131L172.555 114.267C174.87 114.609 177.526 115.087 180.114 115.497C181.475 115.702 182.837 116.248 183.927 116.658C184.199 116.726 184.404 116.931 184.676 117.068C184.335 117.068 184.063 117.068 183.791 117.068C182.633 117.068 181.475 116.863 180.386 116.726L165.473 114.95L165.95 113.106C165.95 113.106 166.222 113.106 166.426 113.175C167.175 113.311 167.856 113.448 168.605 113.584L168.537 113.653ZM5.0391 90.2938L6.12863 90.0889C8.44389 89.6108 10.8272 89.1327 13.1425 88.9278C15.7982 88.7229 18.5221 88.6546 21.1778 88.5863H21.6545C22.6078 88.5863 23.6293 88.5863 24.5826 88.518C24.7869 88.518 25.0593 88.518 25.3317 88.518L25.1274 92.0013L3.20051 91.4549C3.74528 90.6353 4.35814 90.4304 5.0391 90.2938Z" fill="white"/>
<path d="M96.2195 160.78C96.2195 160.78 96.4918 160.78 96.6961 160.78C108.681 160.712 119.508 157.707 128.837 151.97C152.126 137.558 162.817 116.59 160.706 89.8157C159.412 73.8333 152.126 59.012 140.209 48.1522C128.293 37.2923 112.903 31.3501 96.8323 31.3501C80.3531 31.3501 65.7125 36.8825 53.5234 47.8106C41.7428 58.329 34.5246 72.0575 32.0051 88.5863C32.0051 89.884 32.0051 91.25 32.0051 92.5477C32.0051 95.553 32.0051 98.5582 32.2094 101.495C33.5032 117.751 40.8575 132.777 52.8424 143.842C62.9206 153.131 75.4502 158.8 89.0013 160.371C91.4527 160.644 93.9042 160.78 96.4237 160.78H96.2195ZM41.4704 124.513C36.1589 114.541 33.9118 103.544 34.7289 91.933C35.9546 75.4042 42.7642 61.3342 54.9534 50.2012C66.4616 39.6828 79.8764 34.2871 94.7894 34.1505C94.9937 34.1505 95.2661 34.1505 95.4704 34.1505C98.3985 34.1505 101.259 34.2871 104.05 34.6286C123.866 36.8825 139.392 47.3325 150.219 65.5689C155.667 74.7212 158.391 85.1029 158.255 96.4409C158.05 112.218 152.058 127.176 141.299 138.583C130.54 149.989 115.899 156.819 100.033 157.843C97.5814 157.98 94.9937 157.912 92.8147 157.843H92.6104C91.657 157.843 90.7718 157.843 90.0227 157.843C67.5511 154.497 51.6848 143.569 41.5385 124.513H41.4704Z" fill="white"/>
<path d="M106.366 98.2167C106.57 96.6458 106.91 94.5968 105.208 93.1624C103.165 91.4549 100.646 90.6353 97.4451 90.567C97.9218 90.3621 98.3985 90.2255 98.8752 90.0206C99.5561 89.7474 100.578 89.201 101.395 88.3814C102.008 87.7667 102.212 87.0837 102.008 86.3323C101.803 85.581 101.259 85.0346 100.373 84.8297C99.488 84.6248 98.5347 84.5565 97.5813 84.6248C94.7213 84.9663 92.2018 86.1957 89.6822 87.4935C86.3455 89.201 84.7112 91.5232 84.5069 94.9383C84.3707 97.1239 84.5069 104.364 91.8613 106.14C92.7465 106.345 93.768 106.481 95.0618 106.481C95.6747 106.481 96.2875 106.481 96.9685 106.481C101.599 106.345 105.617 102.725 106.298 98.1484L106.366 98.2167ZM91.3846 103.408C89.2055 102.451 87.8436 100.88 87.5032 98.8314C87.2308 97.1922 87.2308 95.2115 87.5032 93.0258C87.6393 92.2062 88.797 91.25 89.1375 90.9768C92.1337 88.6546 95.0618 87.4935 98.1942 87.4252C98.3304 87.4252 98.4666 87.4252 98.6028 87.4252C98.4666 87.4935 98.2623 87.6301 98.1261 87.6984C96.5599 88.3131 94.8575 88.9961 93.1551 89.5425C91.1803 90.1572 89.8184 91.25 89.2056 92.8209C88.5246 94.4602 88.7289 96.5092 89.7503 98.5582C91.2484 101.495 93.4956 102.861 96.5599 102.451H97.1047C97.9218 102.315 98.6709 102.178 99.488 101.973C101.395 101.359 102.484 99.9925 102.62 98.0118C102.757 96.236 101.599 94.3236 99.8966 93.5039C100.918 93.7088 101.871 94.0504 102.689 94.5285C103.778 95.1432 104.119 95.8262 103.982 97.1922C103.506 101.222 100.441 104.022 96.4237 104.159C94.7894 104.227 93.0189 104.159 91.3165 103.476L91.3846 103.408ZM93.9042 92.8209C93.8361 94.4602 95.3342 94.8017 96.0832 95.0066C96.4237 95.0749 96.6961 95.1432 97.1047 95.2115C97.5813 95.3481 98.1261 95.4164 98.6028 95.6213C99.5561 95.9628 100.169 96.8507 100.169 97.8069C100.169 98.6265 99.488 99.3095 98.5347 99.5144C98.058 99.651 97.5132 99.7193 97.0366 99.7876C96.8323 99.7876 96.5599 99.7876 96.3556 99.8559C94.1084 99.9242 92.8146 99.0363 91.8613 96.7824C91.3846 95.6213 91.3165 94.5968 91.657 93.7771C91.9975 93.0258 92.7465 92.4111 93.9042 91.933C94.0404 91.933 94.1765 91.7964 94.3127 91.7964C94.1765 92.0696 94.0404 92.4111 94.0404 92.7526L93.9042 92.8209Z" fill="white"/>
<path d="M143.001 94.7334C143.001 68.6424 121.823 47.4691 95.8789 47.4691C69.9344 47.4691 48.7566 68.7107 48.7566 94.7334C48.7566 120.756 69.9344 141.998 95.8789 141.998C121.823 141.998 143.001 120.756 143.001 94.7334ZM51.2081 94.7334C51.2081 70.0767 71.2283 49.9963 95.8109 49.9963C120.393 49.9963 140.414 70.0767 140.414 94.7334C140.414 119.39 120.393 139.47 95.8109 139.47C71.2283 139.47 51.2081 119.39 51.2081 94.7334Z" fill="white"/>
<path d="M95.8108 54.7773C73.884 54.7773 56.0429 72.6722 56.0429 94.6651C56.0429 116.658 73.884 134.553 95.8108 134.553C117.738 134.553 135.579 116.658 135.579 94.6651C135.579 72.6722 117.738 54.7773 95.8108 54.7773ZM80.4893 108.53C72.8626 102.042 62.9887 102.178 59.3115 102.451C59.1753 101.7 59.0391 100.88 58.9029 100.061C62.1715 99.7193 73.7478 99.1729 82.1917 106.481C88.5246 111.877 91.7932 120.483 91.9294 131.889C91.1122 131.821 90.3632 131.684 89.546 131.548C89.2736 121.234 86.2093 113.516 80.3531 108.53H80.4893ZM62.1034 87.6301C67.2106 87.6301 74.5649 86.5373 80.4893 81.483C86.4136 76.4287 89.546 68.4375 89.6822 57.9192C90.4994 57.7826 91.2484 57.646 92.0656 57.5777C91.9975 69.3254 88.6608 78.0679 82.2598 83.532C73.7478 90.8402 62.1034 90.2255 58.9029 89.884C59.0391 89.0644 59.1072 88.3131 59.2434 87.4935C59.9924 87.4935 60.9458 87.6301 62.1034 87.6301ZM87.1627 58.3973C86.8903 67.8911 84.1665 74.9944 78.9231 79.5023C72.3178 85.1712 63.4653 85.2395 59.9243 84.9663C63.4653 71.8526 73.9521 61.5391 87.2308 58.329L87.1627 58.3973ZM78.9231 110.443C84.0984 114.882 86.8222 121.781 87.1627 131.001C74.0883 127.859 63.7377 117.819 60.0605 104.91C63.6696 104.705 72.3859 104.842 78.9231 110.374V110.443ZM83.8941 104.5C74.5649 96.5092 62.3077 97.1239 58.6986 97.5337C58.6305 96.5775 58.5624 95.6213 58.5624 94.6651C58.5624 93.9138 58.6305 93.0942 58.6986 92.3428C59.5839 92.4111 60.8777 92.5477 62.5801 92.5477C68.5044 92.5477 77.0164 91.3183 83.9622 85.3761C90.976 79.3657 94.5851 69.9401 94.6532 57.3045C95.0618 57.3045 95.4704 57.3045 95.8789 57.3045C96.4237 57.3045 96.9685 57.3045 97.5132 57.3728C97.5813 69.9401 101.19 79.3657 108.204 85.3761C115.15 91.3183 123.662 92.5477 129.586 92.5477C131.016 92.5477 132.174 92.4794 132.991 92.4111C132.991 93.1624 133.127 93.9138 133.127 94.6651C133.127 95.6213 133.059 96.5092 132.991 97.4654C128.905 97.1239 117.193 96.8507 108.204 104.5C101.259 110.443 97.7175 119.663 97.5132 131.957C96.9685 131.957 96.4237 132.026 95.8108 132.026C95.4023 132.026 94.9937 132.026 94.5851 132.026C94.3808 119.731 90.8399 110.443 83.8941 104.5ZM113.243 79.5706C108 75.0627 105.208 68.0277 104.936 58.5339C118.01 61.8123 128.293 72.0575 131.765 85.0346C128.02 85.2395 119.576 85.0346 113.175 79.5023L113.243 79.5706ZM111.609 81.483C117.602 86.6056 124.888 87.6301 129.995 87.6301C130.948 87.6301 131.765 87.6301 132.378 87.5618C132.515 88.3131 132.651 89.1327 132.719 89.9523C129.042 90.2938 117.942 90.4987 109.771 83.532C103.369 78.0679 100.101 69.3254 99.9647 57.646C100.782 57.7143 101.531 57.8509 102.348 57.9875C102.552 68.5058 105.617 76.4287 111.541 81.483H111.609ZM109.839 106.481C117.942 99.5827 128.905 99.7193 132.719 100.061C132.583 100.88 132.515 101.632 132.31 102.451C128.361 102.178 118.963 102.246 111.609 108.53C105.753 113.516 102.689 121.234 102.416 131.479C101.599 131.616 100.85 131.752 100.033 131.821C100.237 120.415 103.506 111.809 109.771 106.481H109.839ZM104.936 130.933C105.276 121.781 108.068 114.882 113.175 110.443C119.44 105.047 127.748 104.705 131.629 104.91C128.02 117.682 117.806 127.654 104.936 130.933Z" fill="white"/>
<path d="M226.759 185.437V168.02H233.296C234.794 168.02 236.02 168.225 237.11 168.703C238.199 169.181 239.016 169.864 239.561 170.752C240.106 171.64 240.446 172.733 240.446 173.962C240.446 175.192 240.174 176.285 239.561 177.104C238.948 177.924 238.199 178.675 237.11 179.153C236.02 179.631 234.794 179.905 233.296 179.905H227.781L228.598 179.017V185.369H226.759V185.437ZM228.598 179.222L227.781 178.334H233.228C234.999 178.334 236.293 177.924 237.178 177.173C238.063 176.421 238.54 175.328 238.54 173.962C238.54 172.596 238.063 171.504 237.178 170.752C236.293 170.001 234.931 169.591 233.228 169.591H227.781L228.598 168.703V179.153V179.222Z" fill="white"/>
<path d="M256.381 185.574C254.134 185.574 252.431 184.959 251.137 183.661C249.844 182.363 249.231 180.519 249.231 177.992V168.02H251.069V177.924C251.069 179.973 251.546 181.476 252.431 182.5C253.385 183.456 254.678 184.003 256.381 184.003C258.083 184.003 259.377 183.525 260.33 182.5C261.284 181.476 261.692 179.973 261.692 177.924V168.02H263.463V177.992C263.463 180.519 262.85 182.363 261.556 183.661C260.262 184.959 258.56 185.574 256.313 185.574H256.381Z" fill="white"/>
<path d="M275.856 183.866H286.275V185.437H274.018V168.02H285.934V169.591H275.856V183.866ZM275.652 175.807H284.845V177.377H275.652V175.807Z" fill="white"/>
<path d="M295.604 185.437V168.02H302.141C303.639 168.02 304.865 168.225 305.955 168.703C307.044 169.181 307.861 169.864 308.406 170.752C308.951 171.64 309.291 172.733 309.291 173.962C309.291 175.192 309.019 176.285 308.406 177.104C307.861 177.992 307.044 178.675 305.955 179.153C304.865 179.631 303.639 179.836 302.141 179.836H296.625L297.443 179.017V185.369H295.604V185.437ZM297.443 179.222L296.625 178.334H302.073C303.844 178.334 305.137 177.924 306.023 177.173C306.908 176.421 307.385 175.328 307.385 173.962C307.385 172.596 306.908 171.504 306.023 170.752C305.137 170.001 303.776 169.591 302.073 169.591H296.625L297.443 168.703V179.153V179.222ZM307.453 185.437L302.958 179.085H304.933L309.427 185.437H307.385H307.453Z" fill="white"/>
<path d="M321.685 185.437V169.591H315.556V168.02H329.584V169.591H323.455V185.437H321.617H321.685Z" fill="white"/>
<path d="M333.874 185.437L341.841 168.02H343.68L351.647 185.437H349.74L342.454 169.045H343.203L335.917 185.437H334.01H333.874ZM337.006 180.792L337.551 179.29H347.629L348.174 180.792H337.006Z" fill="white"/>
<path d="M368.058 185.437L376.025 168.02H377.864L385.831 185.437H383.924L376.638 169.045H377.387L370.101 185.437H368.194H368.058ZM371.19 180.792L371.735 179.29H381.813L382.358 180.792H371.19Z" fill="white"/>
<path d="M405.102 185.437V168.02H406.941V183.866H416.678V185.437H405.102Z" fill="white"/>
<path d="M421.922 185.437L429.889 168.02H431.728L439.695 185.437H437.788L430.502 169.045H431.251L423.965 185.437H422.058H421.922ZM425.054 180.792L425.599 179.29H435.677L436.222 180.792H425.054Z" fill="white"/>
<path d="M458.966 185.437V168.02H460.464L472.449 183.183H471.632V168.02H473.47V185.437H471.972L459.987 170.274H460.805V185.437H458.966Z" fill="white"/>
<path d="M481.301 185.437L489.269 168.02H491.107L499.074 185.437H497.168L489.881 169.045H490.631L483.344 185.437H481.438H481.301ZM484.434 180.792L484.979 179.29H495.057L495.602 180.792H484.434Z" fill="white"/>
<path d="M509.357 185.437V169.591H503.228V168.02H517.256V169.591H511.127V185.437H509.289H509.357Z" fill="white"/>
<path d="M531.828 185.574C529.581 185.574 527.879 184.959 526.585 183.661C525.291 182.363 524.678 180.519 524.678 177.992V168.02H526.517V177.924C526.517 179.973 526.994 181.476 527.879 182.5C528.832 183.456 530.126 184.003 531.828 184.003C533.531 184.003 534.825 183.525 535.778 182.5C536.731 181.476 537.14 179.973 537.14 177.924V168.02H538.91V177.992C538.91 180.519 538.298 182.363 537.004 183.661C535.71 184.959 534.008 185.574 531.76 185.574H531.828Z" fill="white"/>
<path d="M549.465 185.437V168.02H556.003C557.501 168.02 558.726 168.225 559.816 168.703C560.905 169.181 561.723 169.864 562.267 170.752C562.812 171.64 563.153 172.733 563.153 173.962C563.153 175.192 562.88 176.285 562.267 177.104C561.654 177.924 560.905 178.675 559.816 179.153C558.726 179.631 557.501 179.836 556.003 179.836H550.487L551.304 179.017V185.369H549.465V185.437ZM551.304 179.222L550.487 178.334H555.934C557.705 178.334 558.999 177.924 559.884 177.173C560.769 176.421 561.246 175.328 561.246 173.962C561.246 172.596 560.769 171.504 559.884 170.752C558.999 170.001 557.637 169.591 555.934 169.591H550.487L551.304 168.703V179.153V179.222ZM561.382 185.437L556.888 179.085H558.863L563.357 185.437H561.314H561.382Z" fill="white"/>
<path d="M569.622 185.437L577.589 168.02H579.427L587.395 185.437H585.488L578.202 169.045H578.951L571.665 185.437H569.758H569.622ZM572.754 180.792L573.299 179.29H583.377L583.922 180.792H572.754Z" fill="white"/>
<path d="M595.158 185.437V168.02H596.996V183.866H606.734V185.437H595.158Z" fill="white"/>
<path d="M616.608 183.866H627.026V185.437H614.769V168.02H626.686V169.591H616.608V183.866ZM616.404 175.807H625.596V177.377H616.404V175.807Z" fill="white"/>
<path d="M634.585 185.437V184.139L646.638 168.84L646.842 169.523H634.721V167.952H648.477V169.25L636.424 184.549L636.219 183.866H648.749V185.437H634.517H634.585Z" fill="white"/>
<path d="M654.673 185.437L662.641 168.02H664.479L672.446 185.437H670.54L663.253 169.045H664.002L656.716 185.437H654.81H654.673ZM657.806 180.792L658.351 179.29H668.429L668.973 180.792H657.806Z" fill="white"/>
<path d="M269.796 122.054C268.298 122.054 267.412 123.761 266.05 124.581C258.56 130.182 250.252 133.255 240.855 132.094C239.016 131.752 237.11 131.274 235.067 130.933C231.322 130.455 229.279 127.381 227.1 124.649C225.942 123.488 228.462 122.464 227.304 120.756C226.282 119.253 227.304 118.024 229.006 117.546C229.483 117.546 229.483 116.863 229.347 116.726C228.189 114.541 230.028 113.175 230.845 111.604C231.185 110.921 231.526 110.579 232.547 110.921C234.25 111.604 235.952 111.945 237.45 111.945C242.013 111.945 246.303 109.896 250.729 108.872C252.227 108.394 253.793 107.711 255.155 107.164C258.356 105.662 258.56 105.457 257.198 102.246C255.359 98.1484 253.317 94.0504 250.593 90.2938C237.995 73.2186 228.802 62.9735 236.497 40.9806C240.923 28.6864 249.912 17.4168 263.054 13.6602C265.914 13.1821 268.638 13.3187 270.341 16.3922C270.817 17.2119 271.702 18.2364 272.86 18.7828C275.38 19.8073 275.72 22.6759 277.082 24.5883C277.559 25.0665 277.559 25.6129 277.286 26.091C275.924 28.6181 275.107 31.2135 271.702 32.238C266.119 34.2871 262.033 39.0681 257.607 43.3028C256.585 44.4639 256.245 46.1714 256.108 47.7424C254.747 55.9385 255.428 63.7931 261.011 70.6232C266.936 77.9314 272.383 85.786 276.673 94.3236C278.376 97.3971 280.078 100.471 281.1 103.886C282.598 109.828 279.942 117.887 274.971 121.644C274.086 122.122 272.928 122.805 271.43 122.668C270.749 122.327 270.272 122.19 269.932 122.19L269.796 122.054ZM272.315 107.915C271.158 108.394 270.477 108.94 270.477 110.647C271.839 109.964 272.315 109.281 272.315 107.915Z" fill="white"/>
<path d="M321.276 28.3449C321.957 28.6864 324.477 29.8475 324.477 32.2381C324.477 35.7897 321.617 41.1172 321.412 42.6198C319.574 57.3045 320.595 95.1432 325.975 106.754C330.197 105.388 331.422 101.837 334.827 98.8997C333.465 102.656 331.286 105.183 328.699 107.574C327.541 108.394 325.839 109.077 327.541 110.647C329.243 112.15 331.422 109.486 332.308 108.12C337.074 101.495 339.458 94.1187 341.296 86.6056C341.637 84.8981 339.458 87.7667 338.232 91.1817C337.211 90.1572 338.028 89.4742 338.232 88.9961C344.361 73.4918 342.999 57.2362 345.723 41.5953C346.199 39.0682 346.744 36.4727 346.199 34.0822C345.723 32.2381 347.221 30.872 347.561 29.3011C347.765 28.6181 348.038 28.6181 348.719 28.9596C349.536 29.6426 350.217 29.1645 350.898 28.6181C352.055 28.14 353.281 27.7302 354.439 27.7302C359.546 27.7302 364.313 32.5113 364.994 36.4044C367.718 59.6267 359.069 82.4392 354.984 105.183C352.941 114.063 349.195 123.42 339.322 128.064C336.121 129.225 332.716 129.772 329.311 129.772C318.62 129.772 308.202 123.966 305.682 114.063C304.184 108.803 303.503 103.476 303.98 98.0118C304.32 94.5968 304.32 90.7036 302.958 87.6301C299.213 79.7755 300.779 71.9209 300.916 64.0663C301.12 54.1626 303.98 34.9018 309.223 26.0227C309.904 24.8616 310.721 24.3152 311.607 24.3152C312.492 24.3152 313.309 24.7933 313.786 25.8178C315.284 27.8668 317.19 29.5743 318.893 31.0769C320.731 30.5988 319.37 28.6864 321.072 28.2083L321.276 28.3449ZM346.812 56.3483C349.332 52.1136 347.97 48.1522 347.97 44.259C347.153 48.1522 345.927 51.9087 346.812 56.3483Z" fill="white"/>
<path d="M395.296 24.4517C399.382 22.9491 403.945 22.0612 408.575 22.0612C419.947 22.0612 432.068 26.5008 439.218 34.1505C440.921 35.858 442.623 37.5655 441.942 40.4342C440.444 39.7512 441.125 38.2485 439.763 37.3606C440.24 40.2293 439.082 42.6198 438.061 45.0103C437.38 46.0348 437.584 46.8544 437.72 48.0839C439.899 58.4656 432.953 65.2957 425.667 71.4428C422.467 74.5163 419.198 77.9314 414.772 78.9559C415.112 80.117 415.929 80.4585 416.474 81.0049C423.76 86.2641 431.251 91.933 438.742 97.1922C441.602 99.2412 443.849 102.451 447.049 104.022C448.888 105.047 448.411 106.549 447.049 107.779C449.909 109.145 455.697 109.623 452.974 113.721C452.088 114.882 452.293 116.112 451.816 117.273C451.612 118.161 452.497 119.458 451.339 119.8C450.182 120.278 449.16 121.644 447.458 121.302C446.096 120.961 444.734 120.619 443.236 121.644C442.759 121.985 441.533 121.302 440.512 120.756C427.914 115.155 415.998 107.984 405.783 98.2167C404.626 98.6948 404.898 99.7193 404.898 100.402C405.102 105.183 405.375 110.306 405.783 115.087C405.919 119.527 404.898 120.688 400.676 121.371C399.995 121.576 399.314 121.712 398.293 121.849C396.25 122.668 394.411 121.644 393.39 119.8C391.211 115.702 390.666 111.467 391.347 107.028C391.483 103.817 390.666 100.539 390.325 97.3288C389.849 91.5232 389.985 85.7177 389.849 79.9121C389.849 73.9699 388.146 67.9594 388.827 62.0172C389.168 57.4411 389.985 53.0015 389.985 48.3571C389.985 47.5375 390.325 46.308 391.006 45.625C389.849 47.3326 390.53 49.1767 391.006 50.8842C391.347 49.1767 391.483 47.3326 391.006 45.625C389.304 38.7949 387.465 27.7302 395.433 24.1102L395.296 24.4517ZM414.363 52.5917C417.768 50.5427 420.288 46.991 422.671 43.9175C423.488 42.893 423.692 42.0734 422.671 41.1855C420.492 38.7949 418.245 37.0874 415.18 37.0874C414.363 37.0874 413.342 37.224 412.32 37.5655C410.141 38.59 406.056 38.2485 406.532 41.8002C406.737 46.2397 406.328 51.0208 406.056 55.597C405.851 56.4166 405.715 57.646 406.396 58.8071C409.937 57.646 411.503 54.2309 414.363 52.5234V52.5917ZM431.387 36.8825C431.387 34.8335 431.047 33.6724 429.549 32.6479C429.549 34.0139 429.889 35.3799 431.387 36.8825Z" fill="white"/>
<path d="M466.933 126.152C465.571 109.76 468.091 93.5723 468.431 77.385C469.112 61.5391 470.474 45.9665 470.815 30.3256C471.155 26.9106 471.496 26.774 475.241 25.8861C477.42 25.408 478.986 23.837 479.667 21.6514C480.144 20.4903 481.029 19.4658 482.391 20.2854C486.613 22.6759 492.946 22.6759 493.286 28.9596C491.924 61.5391 489.405 94.3236 486.681 127.245C486.341 131.001 484.638 134.075 480.552 134.416C478.373 134.758 471.223 132.709 469.521 131.684C467.342 130.318 467.138 128.474 467.001 126.22L466.933 126.152ZM482.595 125.947C482.119 126.425 481.233 126.425 481.71 127.108C483.208 127.45 484.774 125.742 484.23 123.898C482.868 124.239 483.208 125.4 482.527 125.947H482.595Z" fill="white"/>
<path d="M534.416 24.1102C536.255 27.8668 537.481 32.3063 540 35.5165C542.383 38.7266 544.903 41.8002 546.946 45.2152C550.146 50.6793 553.415 56.28 556.479 61.6074C557.16 62.7686 557.637 64.1346 558.863 65.0225C562.267 59.8999 564.446 54.2992 566.694 48.8352C567.375 47.6741 569.758 37.4289 571.12 34.0139C573.163 28.5498 575.887 18.9877 579.632 16.802C583.377 14.6164 593.251 20.0122 595.294 24.9982C598.018 31.9648 598.154 47.879 599.175 53.4796C601.899 71.3745 602.58 89.6791 602.58 107.711C602.58 112.287 602.24 116.59 603.261 121.029C604.078 124.786 602.24 131.957 596.792 130.386C595.771 130.045 594.749 129.703 593.728 129.703C587.94 129.703 585.76 128.201 584.739 122.395C582.356 108.598 580.653 94.7334 580.653 80.7317C580.517 71.1696 580.177 61.9489 579.972 52.7283C579.972 52.3868 579.632 52.2502 579.087 51.7038C575.887 62.7686 572.482 73.5601 569.077 84.4882C568.396 88.2448 563.97 92.0013 560.088 90.4304C559.067 90.0889 558.045 89.6108 557.024 89.7474C551.781 90.7719 549.193 87.5618 547.014 83.8052C543.473 76.9751 540.545 70.0084 538.161 62.632C537.48 60.9244 537.14 59.0803 535.982 57.3728C534.961 58.7388 535.097 59.7633 535.097 60.9244C535.778 84.1467 534.416 107.506 533.054 130.865C533.259 136.124 534.552 146.369 526.245 145.208C518.958 144.183 517.052 145.344 516.711 137.012C513.987 100.334 514.873 63.1101 517.528 26.4325C517.733 23.9053 518.55 22.1978 520.593 20.9684C522.295 20.0805 526.381 19.1243 529.241 18.5779C531.624 18.2364 533.327 22.3344 534.348 24.0419L534.416 24.1102ZM536.119 51.4306C536.595 54.8456 537.821 58.2607 540.204 60.9927C540 59.4901 537.004 53.1381 536.119 51.4306Z" fill="white"/>
<path d="M626.141 138.787C621.238 138.104 621.715 133.187 622.396 129.567C624.779 117.956 629.001 106.891 633.632 95.6213C631.112 109.76 625.46 123.625 626.141 138.787ZM701.66 130.591C701.523 132.299 699.14 133.46 696.893 133.118C694.85 132.914 693.011 132.094 690.969 132.299C687.087 132.094 685.044 126.835 684.159 123.625C680.958 112.56 678.235 101.632 676.532 90.1572C676.328 89.4742 676.328 88.7912 675.375 87.9716C669.11 89.6791 662.777 92.0696 656.648 94.8017C655.286 95.2798 654.605 96.6458 654.129 98.0118C653.312 100.88 652.29 103.817 651.269 106.686L645.481 124.239C644.459 127.108 643.642 130.045 642.621 132.914C641.122 137.831 640.918 137.831 635.47 137.831H634.789L633.632 138.309H632.951C624.439 136.465 629.069 123.147 630.091 117.478C633.496 101.973 639.965 88.1082 642.825 72.4673C639.624 74.8578 638.739 77.7265 637.718 80.8C637.037 82.849 636.56 85.2396 633.291 84.3516C632.951 83.4637 633.768 82.5075 634.177 81.1415C637.377 70.5549 640.782 60.3097 645.072 50.0646C648.136 43.2345 650.86 36.2678 653.243 28.8913C654.605 22.9491 660.734 22.2661 663.798 17.4851C664.615 16.119 665.977 15.6409 667.203 15.6409C668.565 15.6409 669.723 16.119 670.948 17.0069C679.12 23.9736 681.639 33.7407 684.908 42.9613C693.42 68.5741 694.918 97.0556 701.932 123.488C702.613 125.879 702.136 128.269 701.932 130.455L701.66 130.591ZM673.264 71.1696C671.902 66.3885 671.221 61.2659 670.54 56.3483C670.404 55.3238 670.404 54.1626 669.178 53.1381C666.114 58.7388 661.551 73.4235 661.687 76.3604C662.573 76.2238 663.185 76.0189 664.071 75.8823L668.837 75.0627C669.655 74.8578 670.335 74.7212 671.221 74.5846C673.264 74.2431 673.945 73.4235 673.264 71.3745V71.1696Z" fill="white"/>
</g>
<defs>
<clipPath id="clip0_128_185">
<rect width="702" height="191.174" fill="white"/>
</clipPath>
</defs>
</svg>
